<?xml version="1.0" encoding="UTF-8"?>
<svg xmlns="http://www.w3.org/2000/svg" xmlns:xlink="http://www.w3.org/1999/xlink" width="512px" height="512px" viewBox="0 0 512 512" version="1.1">
<g id="surface1">
<path style=" stroke:none;fill-rule:nonzero;fill:rgb(100%,100%,100%);fill-opacity:1;" d="M 38.214844 38.214844 L 38.214844 473.785156 L 473.785156 473.785156 L 473.785156 38.214844 Z M 38.214844 38.214844 "/>
<path style=" stroke:none;fill-rule:nonzero;fill:rgb(0%,69.01961%,41.960785%);fill-opacity:1;" d="M 239.949219 241.480469 C 239.949219 254.097656 229.734375 264.28125 217.148438 264.28125 C 204.570312 264.28125 194.367188 254.097656 194.367188 241.480469 C 194.367188 228.921875 204.570312 218.699219 217.148438 218.699219 C 229.734375 218.699219 239.949219 228.921875 239.949219 241.480469 Z M 436.222656 467.195312 L 346.632812 467.195312 L 346.632812 431.140625 L 373.871094 431.140625 L 361.269531 405.878906 L 360.921875 405.425781 C 357.003906 400.125 352.800781 397.136719 346.632812 395.65625 L 346.632812 192.773438 L 163.03125 192.773438 L 163.03125 313.472656 L 180.046875 313.851562 L 205.140625 280.480469 C 210.882812 272.824219 217.410156 268.027344 230.464844 267.945312 L 281.558594 267.859375 C 296.078125 267.859375 301.875 267.183594 308.941406 278.1875 L 328.394531 313.3125 C 329.230469 314.855469 329.777344 316.585938 329.777344 318.457031 C 329.777344 324.308594 325.027344 329.058594 319.175781 329.058594 C 315.035156 329.058594 311.476562 326.640625 309.734375 323.179688 L 291.179688 289.828125 L 264.957031 289.828125 L 282.277344 329.027344 C 285.148438 335.671875 288.484375 340.910156 289.835938 353.402344 L 292.867188 401.054688 L 334.59375 401.054688 C 347.171875 401.054688 351.332031 403.472656 355.652344 409.324219 L 363.265625 424.582031 L 278.441406 424.582031 C 269.464844 424.582031 265.316406 421.128906 264.871094 411.464844 L 261.882812 358.082031 L 216.046875 453.550781 C 210.132812 465.875 206.710938 467.195312 195.128906 467.195312 L 178.304688 467.195312 L 234.476562 350.445312 L 214.929688 305.984375 L 197.503906 329.125 C 192.675781 335.164062 191.515625 335.871094 181.207031 335.46875 L 163.03125 334.859375 L 163.03125 467.195312 L 75.777344 467.195312 L 75.777344 187.34375 L 255.980469 72.0625 L 436.222656 187.34375 Z M 38.214844 38.214844 L 38.214844 473.785156 L 473.785156 473.785156 L 473.785156 38.214844 Z M 38.214844 38.214844 "/>
</g>
</svg>
